<?xml version="1.0" encoding="UTF-8"?>
<!DOCTYPE svg PUBLIC "-//W3C//DTD SVG 1.1//EN" "http://www.w3.org/Graphics/SVG/1.1/DTD/svg11.dtd">
<svg xmlns="http://www.w3.org/2000/svg" version="1.1" width="56px" height="49px" style="shape-rendering:geometricPrecision; text-rendering:geometricPrecision; image-rendering:optimizeQuality; fill-rule:evenodd; clip-rule:evenodd" xmlns:xlink="http://www.w3.org/1999/xlink">
<g><path style="opacity:0.012" fill="#2e4141" d="M 39.5,-0.5 C 39.8333,-0.5 40.1667,-0.5 40.5,-0.5C 40.5,-0.166667 40.5,0.166667 40.5,0.5C 40.1667,0.166667 39.8333,-0.166667 39.5,-0.5 Z"/></g>
<g><path style="opacity:0.012" fill="#2e4141" d="M 38.5,1.5 C 39.8333,2.16667 39.8333,2.16667 38.5,1.5 Z"/></g>
<g><path style="opacity:0.004" fill="#2e4041" d="M 48.5,1.5 C 49.8333,2.16667 49.8333,2.16667 48.5,1.5 Z"/></g>
<g><path style="opacity:0.012" fill="#2f4141" d="M 47.5,3.5 C 48.8333,4.16667 48.8333,4.16667 47.5,3.5 Z"/></g>
<g><path style="opacity:0.012" fill="#2e4141" d="M 46.5,5.5 C 47.8333,6.16667 47.8333,6.16667 46.5,5.5 Z"/></g>
<g><path style="opacity:0.988" fill="#223031" d="M 41.5,-0.5 C 42.5,-0.5 43.5,-0.5 44.5,-0.5C 45.3984,0.157674 46.3984,0.824341 47.5,1.5C 46.2528,3.32298 45.5861,5.32298 45.5,7.5C 44.6618,7.84171 44.3284,8.50838 44.5,9.5C 44.1667,9.5 43.8333,9.5 43.5,9.5C 41.597,9.20414 39.9303,8.53747 38.5,7.5C 39.4552,5.25429 40.1218,2.92095 40.5,0.5C 41.1667,0.5 41.5,0.166667 41.5,-0.5 Z"/></g>
<g><path style="opacity:0.012" fill="#2e4141" d="M 45.5,7.5 C 46.8333,8.16667 46.8333,8.16667 45.5,7.5 Z"/></g>
<g><path style="opacity:0.012" fill="#442316" d="M 33.5,9.5 C 32.7611,9.63101 32.0944,9.46434 31.5,9C 32.4368,8.30831 33.1034,8.47498 33.5,9.5 Z"/></g>
<g><path style="opacity:0.997" fill="#1e2626" d="M 38.5,7.5 C 39.9303,8.53747 41.597,9.20414 43.5,9.5C 43.5,10.1667 43.8333,10.5 44.5,10.5C 44.6747,12.6208 44.3414,14.6208 43.5,16.5C 43.1667,16.5 42.8333,16.5 42.5,16.5C 42.1583,15.6618 41.4916,15.3284 40.5,15.5C 40.1583,14.6618 39.4916,14.3284 38.5,14.5C 37.609,13.8902 36.609,13.5569 35.5,13.5C 35.1583,12.6618 34.4916,12.3284 33.5,12.5C 33.5,11.8333 33.5,11.1667 33.5,10.5C 33.5,10.1667 33.5,9.83333 33.5,9.5C 34.8195,8.05817 36.4862,7.39151 38.5,7.5 Z"/></g>
<g><path style="opacity:0.004" fill="#161a1b" d="M 44.5,9.5 C 45.1667,9.5 45.5,9.83333 45.5,10.5C 45.1667,10.1667 44.8333,9.83333 44.5,9.5 Z"/></g>
<g><path style="opacity:0.012" fill="#542512" d="M 28.5,11.5 C 29.8333,12.1667 29.8333,12.1667 28.5,11.5 Z"/></g>
<g><path style="opacity:0.008" fill="#1b2525" d="M 45.5,10.5 C 46.525,10.8966 46.6917,11.5632 46,12.5C 45.5357,11.9056 45.369,11.2389 45.5,10.5 Z"/></g>
<g><path style="opacity:0.998" fill="#783518" d="M 33.5,12.5 C 34.4916,12.3284 35.1583,12.6618 35.5,13.5C 34.5903,16.9922 32.9236,19.9922 30.5,22.5C 30.1667,22.5 29.8333,22.5 29.5,22.5C 29.124,19.478 29.7907,16.478 31.5,13.5C 31.9569,12.7025 32.6236,12.3691 33.5,12.5 Z"/></g>
<g><path style="opacity:0.004" fill="#803816" d="M 46.5,18.5 C 46.369,17.7611 46.5357,17.0944 47,16.5C 47.6917,17.4368 47.525,18.1034 46.5,18.5 Z"/></g>
<g><path style="opacity:0.012" fill="#542614" d="M 26.5,19.5 C 26.1667,19.5 25.8333,19.5 25.5,19.5C 25.8333,16.8333 26.1667,16.8333 26.5,19.5 Z"/></g>
<g><path style="opacity:1" fill="#5d2914" d="M 35.5,13.5 C 36.609,13.5569 37.609,13.8902 38.5,14.5C 37.9512,16.9013 37.1178,19.2346 36,21.5C 35.1841,22.8228 34.0174,23.4894 32.5,23.5C 31.5084,23.6716 30.8417,23.3382 30.5,22.5C 32.9236,19.9922 34.5903,16.9922 35.5,13.5 Z"/></g>
<g><path style="opacity:0.988" fill="#5e2914" d="M 33.5,10.5 C 33.5,11.1667 33.5,11.8333 33.5,12.5C 32.6236,12.3691 31.9569,12.7025 31.5,13.5C 29.7907,16.478 29.124,19.478 29.5,22.5C 28.8333,22.5 28.1667,22.5 27.5,22.5C 27.1667,22.5 26.8333,22.5 26.5,22.5C 26.5,21.5 26.5,20.5 26.5,19.5C 28.6246,16.9122 29.9579,13.9122 30.5,10.5C 31.5,10.5 32.5,10.5 33.5,10.5 Z"/></g>
<g><path style="opacity:1" fill="#4f2313" d="M 38.5,14.5 C 39.4916,14.3284 40.1583,14.6618 40.5,15.5C 38.6092,18.6142 37.2759,21.9475 36.5,25.5C 34.847,25.3404 33.5137,24.6737 32.5,23.5C 34.0174,23.4894 35.1841,22.8228 36,21.5C 37.1178,19.2346 37.9512,16.9013 38.5,14.5 Z"/></g>
<g><path style="opacity:1" fill="#873b1a" d="M 40.5,15.5 C 41.4916,15.3284 42.1583,15.6618 42.5,16.5C 41.2068,20.1202 39.2068,23.1202 36.5,25.5C 37.2759,21.9475 38.6092,18.6142 40.5,15.5 Z"/></g>
<g><path style="opacity:0.004" fill="#7e3719" d="M 45.5,18.5 C 45.8333,18.5 46.1667,18.5 46.5,18.5C 46.6716,19.4916 46.3382,20.1583 45.5,20.5C 45.5,19.8333 45.5,19.1667 45.5,18.5 Z"/></g>
<g><path style="opacity:0.012" fill="#572513" d="M 25.5,19.5 C 25.631,20.2389 25.4643,20.9056 25,21.5C 24.3083,20.5632 24.475,19.8966 25.5,19.5 Z"/></g>
<g><path style="opacity:0.004" fill="#7b3617" d="M 44.5,20.5 C 44.8333,20.5 45.1667,20.5 45.5,20.5C 45.6716,21.4916 45.3382,22.1583 44.5,22.5C 44.5,21.8333 44.5,21.1667 44.5,20.5 Z"/></g>
<g><path style="opacity:0.016" fill="#293838" d="M 26.5,22.5 C 26.6495,23.552 26.4828,24.552 26,25.5C 25.2599,24.2506 25.4265,23.2506 26.5,22.5 Z"/></g>
<g><path style="opacity:0.759" fill="#703317" d="M 42.5,16.5 C 42.8333,16.5 43.1667,16.5 43.5,16.5C 44.8333,16.5 45.5,17.1667 45.5,18.5C 44.6618,18.8417 44.3284,19.5084 44.5,20.5C 43.6618,20.8417 43.3284,21.5084 43.5,22.5C 42.6618,22.8417 42.3284,23.5084 42.5,24.5C 41.6618,24.8417 41.3284,25.5084 41.5,26.5C 40.8333,27.1667 40.1667,27.8333 39.5,28.5C 39.5,27.8333 39.1667,27.5 38.5,27.5C 37.8333,26.8333 37.1667,26.1667 36.5,25.5C 39.2068,23.1202 41.2068,20.1202 42.5,16.5 Z"/></g>
<g><path style="opacity:0.004" fill="#773417" d="M 43.5,22.5 C 43.8333,22.5 44.1667,22.5 44.5,22.5C 44.6716,23.4916 44.3382,24.1583 43.5,24.5C 43.5,23.8333 43.5,23.1667 43.5,22.5 Z"/></g>
<g><path style="opacity:0.835" fill="#1e2629" d="M 27.5,23.5 C 27.5,23.1667 27.5,22.8333 27.5,22.5C 28.1667,22.5 28.8333,22.5 29.5,22.5C 29.8333,22.5 30.1667,22.5 30.5,22.5C 30.8417,23.3382 31.5084,23.6716 32.5,23.5C 33.5137,24.6737 34.847,25.3404 36.5,25.5C 37.1667,26.1667 37.8333,26.8333 38.5,27.5C 38.5,27.8333 38.5,28.1667 38.5,28.5C 37.8333,28.5 37.5,28.8333 37.5,29.5C 34.4017,29.4125 34.0684,29.9125 36.5,31C 35.2068,31.49 33.8734,31.6567 32.5,31.5C 32.5,30.8333 32.5,30.1667 32.5,29.5C 33.2674,28.828 33.9341,27.9947 34.5,27C 32.4234,25.295 30.09,24.1283 27.5,23.5 Z"/></g>
<g><path style="opacity:0.008" fill="#733117" d="M 42.5,24.5 C 42.8333,24.5 43.1667,24.5 43.5,24.5C 43.6716,25.4916 43.3382,26.1583 42.5,26.5C 42.5,25.8333 42.5,25.1667 42.5,24.5 Z"/></g>
<g><path style="opacity:1" fill="#212f2f" d="M 27.5,23.5 C 30.09,24.1283 32.4234,25.295 34.5,27C 33.9341,27.9947 33.2674,28.828 32.5,29.5C 32.3605,27.663 31.6939,27.3296 30.5,28.5C 28.8775,31.4082 27.5442,34.4082 26.5,37.5C 25.596,36.791 25.2627,35.791 25.5,34.5C 26.3578,31.9499 27.3578,29.4499 28.5,27C 27.6634,25.9887 27.33,24.8221 27.5,23.5 Z"/></g>
<g><path style="opacity:0.008" fill="#562614" d="M 41.5,26.5 C 41.8333,26.5 42.1667,26.5 42.5,26.5C 42.3147,27.1701 41.9813,27.1701 41.5,26.5 Z"/></g>
<g><path style="opacity:0.012" fill="#2e4040" d="M 25.5,28.5 C 26.8333,29.1667 26.8333,29.1667 25.5,28.5 Z"/></g>
<g><path style="opacity:0.857" fill="#2e4041" d="M 32.5,29.5 C 32.5,30.1667 32.5,30.8333 32.5,31.5C 30.8235,32.1834 30.1568,33.5168 30.5,35.5C 29.5207,36.7653 28.5207,38.0986 27.5,39.5C 26.7025,39.0431 26.3691,38.3764 26.5,37.5C 27.5442,34.4082 28.8775,31.4082 30.5,28.5C 31.6939,27.3296 32.3605,27.663 32.5,29.5 Z"/></g>
<g><path style="opacity:0.012" fill="#442b1e" d="M 38.5,28.5 C 38.8333,28.5 39.1667,28.5 39.5,28.5C 39.3147,29.1701 38.9813,29.1701 38.5,28.5 Z"/></g>
<g><path style="opacity:0.004" fill="#192828" d="M 37.5,29.5 C 37.8333,29.5 38.1667,29.5 38.5,29.5C 38.3147,30.1701 37.9813,30.1701 37.5,29.5 Z"/></g>
<g><path style="opacity:0.012" fill="#2e4141" d="M 24.5,30.5 C 25.8333,31.1667 25.8333,31.1667 24.5,30.5 Z"/></g>
<g><path style="opacity:0.004" fill="#293839" d="M 32.5,35.5 C 32.1667,35.5 31.8333,35.5 31.5,35.5C 31.281,34.325 31.6143,33.325 32.5,32.5C 33.087,33.2334 33.087,34.2334 32.5,35.5 Z"/></g>
<g><path style="opacity:0.008" fill="#263638" d="M 23.5,36.5 C 23.1667,36.5 22.8333,36.5 22.5,36.5C 22.8333,33.8333 23.1667,33.8333 23.5,36.5 Z"/></g>
<g><path style="opacity:0.006" fill="#121c1b" d="M 32.5,35.5 C 33.8333,36.1667 33.8333,36.8333 32.5,37.5C 32.5,36.8333 32.5,36.1667 32.5,35.5 Z"/></g>
<g><path style="opacity:0.01" fill="#2f4142" d="M 22.5,36.5 C 22.6495,37.552 22.4828,38.552 22,39.5C 21.2599,38.2506 21.4265,37.2506 22.5,36.5 Z"/></g>
<g><path style="opacity:0.004" fill="#121b1b" d="M 31.5,37.5 C 31.8333,37.5 32.1667,37.5 32.5,37.5C 32.6716,38.4916 32.3382,39.1583 31.5,39.5C 31.5,38.8333 31.5,38.1667 31.5,37.5 Z"/></g>
<g><path style="opacity:0.008" fill="#131b1a" d="M 30.5,39.5 C 30.8333,39.5 31.1667,39.5 31.5,39.5C 31.3147,40.1701 30.9813,40.1701 30.5,39.5 Z"/></g>
<g><path style="opacity:1" fill="#1f2c2d" d="M 25.5,34.5 C 25.2627,35.791 25.596,36.791 26.5,37.5C 26.3691,38.3764 26.7025,39.0431 27.5,39.5C 28.5207,38.0986 29.5207,36.7653 30.5,35.5C 30.8333,35.5 31.1667,35.5 31.5,35.5C 31.5,36.1667 31.5,36.8333 31.5,37.5C 30.6618,37.8417 30.3284,38.5084 30.5,39.5C 29.8333,39.5 29.5,39.8333 29.5,40.5C 28.8333,40.5 28.5,40.8333 28.5,41.5C 27.5084,41.3284 26.8417,41.6618 26.5,42.5C 25.8333,42.5 25.5,42.8333 25.5,43.5C 24.6618,43.8417 24.3284,44.5084 24.5,45.5C 23.6618,45.8417 23.3284,46.5084 23.5,47.5C 23.1667,47.5 22.8333,47.5 22.5,47.5C 21.8333,47.5 21.5,47.1667 21.5,46.5C 21.5,45.8333 21.5,45.1667 21.5,44.5C 22.7682,42.0948 23.4349,39.4282 23.5,36.5C 24.1667,35.8333 24.8333,35.1667 25.5,34.5 Z"/></g>
<g><path style="opacity:0.008" fill="#101817" d="M 29.5,40.5 C 29.8333,40.5 30.1667,40.5 30.5,40.5C 30.3147,41.1701 29.9813,41.1701 29.5,40.5 Z"/></g>
<g><path style="opacity:0.008" fill="#131c1c" d="M 21.5,44.5 C 21.1667,44.5 20.8333,44.5 20.5,44.5C 20.8333,40.5 21.1667,40.5 21.5,44.5 Z"/></g>
<g><path style="opacity:0.012" fill="#111918" d="M 28.5,41.5 C 28.8333,41.5 29.1667,41.5 29.5,41.5C 29.3147,42.1701 28.9813,42.1701 28.5,41.5 Z"/></g>
<g><path style="opacity:0.004" fill="#1c2727" d="M 26.5,42.5 C 27.1667,42.5 27.8333,42.5 28.5,42.5C 27.8333,43.8333 26.8333,44.8333 25.5,45.5C 25.5,44.8333 25.5,44.1667 25.5,43.5C 26.1667,43.5 26.5,43.1667 26.5,42.5 Z"/></g>
<g><path style="opacity:0.008" fill="#ed4423" d="M 7.5,45.5 C 10.3035,44.3622 13.3035,44.1955 16.5,45C 13.5184,45.498 10.5184,45.6646 7.5,45.5 Z"/></g>
<g><path style="opacity:0.004" fill="#762e1e" d="M 20.5,44.5 C 19.8333,45.1667 19.8333,45.1667 20.5,44.5 Z"/></g>
<g><path style="opacity:0.012" fill="#121c1b" d="M 24.5,45.5 C 24.8333,45.5 25.1667,45.5 25.5,45.5C 25.3147,46.1701 24.9813,46.1701 24.5,45.5 Z"/></g>
<g><path style="opacity:0.391" fill="#eb4423" d="M 21.5,46.5 C 21.5,47.1667 21.8333,47.5 22.5,47.5C 22.5,47.8333 22.5,48.1667 22.5,48.5C 17.5,48.5 12.5,48.5 7.5,48.5C 11.7147,46.5636 16.3814,45.8969 21.5,46.5 Z"/></g>
<g><path style="opacity:0.016" fill="#ec4522" d="M 6.5,48.5 C 5.83333,47.1667 5.83333,47.1667 6.5,48.5 Z"/></g>
<g><path style="opacity:0.004" fill="#57281b" d="M 23.5,47.5 C 24.1667,47.5 24.5,47.8333 24.5,48.5C 24.1667,48.1667 23.8333,47.8333 23.5,47.5 Z"/></g>
</svg>
